<?xml version="1.0" standalone="no"?><!DOCTYPE svg PUBLIC "-//W3C//DTD SVG 1.1//EN" "http://www.w3.org/Graphics/SVG/1.1/DTD/svg11.dtd"><svg t="1700286649549" class="icon" viewBox="0 0 1024 1024" version="1.1" xmlns="http://www.w3.org/2000/svg" p-id="3259" xmlns:xlink="http://www.w3.org/1999/xlink" width="200" height="200"><path d="M552.732113 647.822881c0 3.106725 4.392162 5.704693 13.202076 7.769823l31.836404 7.763802c18.638844-17.592733 31.84393-34.425341 39.612247-50.478258-30.558492 3.629028-55.144367 7.763802-73.784716 12.423889C556.3491 636.172662 552.732113 643.688107 552.732113 647.822881z" fill="#ffffff" p-id="3260"></path><path d="M518.562655 693.254216c-8.293631 2.333054-13.978757 3.496571-17.086987 3.496571-9.845488 0-14.756943-8.544999-14.756943-25.628975 0-5.692652 0.508756-13.203581 1.551857-22.52225-37.277688 18.640349-60.960445 27.959019-71.0573 27.959019-10.095351 0-19.549488-2.066634-28.344349-6.210439 3.10823 25.368576 5.688136 49.191316 7.762297 71.447146 32.096803 2.065129 60.055822-0.906128 83.878561-8.931834 23.806182-8.025706 50.732637-21.361744 80.76431-39.994567-5.180885-2.063624-11.529803-3.10522-19.030195-3.10522C534.735988 689.763667 526.835213 690.927183 518.562655 693.254216z" fill="#ffffff" p-id="3261"></path><path d="M273.153968 674.231547c31.572995 27.444242 53.061175 41.158084 64.45852 41.158084 4.655572 0 7.763802-3.496571 9.315659-10.482186 1.553362-6.993141 2.8388-41.805318 3.881901-104.457603C317.152357 638.248328 291.272014 662.847749 273.153968 674.231547z" fill="#ffffff" p-id="3262"></path><path d="M513.503691 64.259834c-247.789908 0-448.662851 200.874448-448.662851 448.664356 0 247.791413 200.874448 448.664356 448.662851 448.664356 247.791413 0 448.664356-200.872943 448.664356-448.664356C962.168047 265.134283 761.295104 64.259834 513.503691 64.259834zM819.493513 631.517091c-8.030222 0-20.326169-2.45347-36.886337-7.376966-16.573715-4.914465-30.031674-8.274063-40.385918-10.096856-10.360265-1.806235-26.924949-2.716879-49.703082-2.716879-8.28761 24.342032-20.71451 48.14671-37.279193 71.445641 40.897685 12.947697 70.01721 24.337517 87.369111 34.166448 17.33986 9.848498 29.381429 24.205059 36.114171 43.102797 6.719196 18.897738 10.098361 32.232271 10.098361 39.994567 0 6.732742-3.106725 10.102877-9.32469 10.102877-6.205924 0-23.297426-10.756132-51.25494-32.232271-27.952998-21.486675-63.425956-41.280005-106.39178-59.408587-48.675033 34.675204-93.195725 52.031621-133.581644 52.031621-27.442736 0-57.730294-7.255045-90.859661-21.750085 2.065129 50.213344-2.07416 75.335068-12.423889 75.335068-3.106725 0-6.484385-1.557878-10.096856-4.655572-3.627523-3.106725-17.865173-18.781838-42.712951-46.989214-24.852294-28.228449-50.481269-58.628896-76.88843-91.252517-15.021858 0-25.892384-8.150637-32.617601-24.460943-6.731237-16.313316-10.096856-28.467775-10.096856-36.499502 0-8.02119 6.335371-14.23765 19.02869-18.640349 12.682783-4.392162 25.62747-10.605612 38.831051-18.638844 13.203581-8.019685 41.027132-27.301248 83.482695-57.85974l3.886416-51.25494c-29.513886 18.128583-54.6326 27.182337-75.333563 27.182337-13.468495 0-24.728868-3.750949-33.781117-11.258867-9.064291-7.500392-20.070286-17.338355-33.005941-29.510876-12.947697-12.16048-19.41402-20.580547-19.41402-25.243645 0-4.655572 6.208934-7.241499 18.638844-7.763802 28.46627-2.063624 55.258761-9.053755 80.374465-20.973403 25.106672-11.900081 51.376861-28.207376 78.828628-48.92038 6.21345-34.170963 9.320175-59.798433 9.320175-76.883915 0-17.085482-3.886416-28.603243-11.650218-34.559304-7.768317-5.945525-11.650218-10.607117-11.650218-13.980262 0-3.364113 2.328538-5.823604 6.990131-7.376966 4.660087-1.553362 8.794861-2.334559 12.423889-2.334559 10.352739 0 24.331496 8.681971 41.937775 26.018821 17.595743 17.354912 26.402646 30.556987 26.402646 39.606227 0 9.068807-1.816772 18.775817-5.435263 29.125546 22.257336 1.043101 33.395787 13.977252 33.395787 38.832556 0 9.314154-4.018874 18.900748-12.040064 28.73269-8.031727 9.839467-26.28223 27.956008-54.746995 54.36317-3.629028 20.186186-6.484385 37.538087-8.541988 52.030116 21.739548-21.226276 33.778107-31.84393 36.106645-31.84393 2.333054 0 3.498076 1.049122 3.498076 3.10823 0 3.629028-2.986309 13.336038-8.930329 29.124041-5.957566 15.801549-19.0317 36.377581-39.216381 61.741641-2.596463 31.064238-3.887922 55.660649-3.887922 73.778695 18.116541-2.06814 65.238212-12.161985 141.34093-30.289062 9.323185-11.382293 15.146789-19.924282 17.473822-25.62747 2.328538-5.688136 3.496571-11.650218 3.496571-17.860658-22.267872 11.916638-41.164105 17.860658-56.696224 17.860658s-23.295921-7.498887-23.295921-22.51924c0-15.012827 6.469333-22.520745 19.41402-22.520745 12.937161 0 25.62747-3.750949 38.051359-11.261878 12.43292-7.498887 31.572995-17.984084 57.4714-31.451074 31.572995-32.096803 50.210334-56.428299 55.918037-73.002014-51.256445 33.657691-85.424398 59.017236-102.511385 76.102718-9.323185 9.32168-16.694131 13.984778-22.13692 13.984778-5.435263 0-9.062786-7.24752-10.872032-21.747074-1.819782-14.487513-2.716879-25.359545-2.716879-32.616096 0-7.246014 1.285438-13.072629 3.878891-17.473822 2.587432-4.392162 8.275568-8.663909 17.086987-12.81524 22.258841-9.827426 35.72282-20.193712 40.385918-31.062733-29.507866-3.106725-49.581162-11.907607-60.185268-26.405656-10.620664-14.489018-15.924975-24.585874-15.924975-30.289062 0-5.688136 1.42241-8.543493 4.271747-8.543493 2.8388 0 6.335371 0.910644 10.486702 2.718384 4.139289 1.821287 8.793356 2.721395 13.977252 2.721395 16.042381 0 50.481269-12.932645 103.291076-38.829545-9.842478-6.214955-17.220949-9.323185-22.13692-9.323185-4.923497 0-10.095351 0.522303-15.530614 1.554868-5.432253 1.041596-9.704 1.553362-12.813735 1.553362-3.106725 0-4.661593-0.511767-4.661593-1.553362 0-3.106725 10.607117-10.348224 31.839414-21.745569-2.593453-12.423889-12.690309-25.880343-30.286052-40.381403-6.732742-5.171854-10.093845-9.32168-10.093845-12.428405 0-3.103714 4.389152-4.657077 13.202076-4.657077 8.793356 0 25.237624 2.075666 49.317752 6.208934 24.072602 4.151331 38.44271 11.529803 43.098282 22.13692 4.661593 10.617654 8.278579 24.727363 10.875042 42.323106 5.167338-1.554868 10.483691-2.327033 15.92046-2.327033 5.433758 0 11.124905 3.370134 17.086987 10.095351 5.945525 6.732742 8.927318 12.946192 8.927318 18.638844 0 10.360265-4.658582 18.902253-13.975746 25.62747-24.345043 17.606279-39.095965 31.583531-44.267819 41.93326 7.768317 0 13.323996 1.168032 16.695636 3.498076 3.364113 2.327033 7.115062 8.289115 11.266393 17.859152 4.131763 9.59111 6.208934 17.475327 6.208934 23.688777 0 6.208934-2.077171 11.650218-6.208934 16.30579-9.32469 9.843983-16.314821 20.971898-20.973403 33.395787 11.380788-1.551857 21.224771-2.327033 29.512381-2.327033 8.274063 0 14.361077 3.75998 18.248998 11.258867 3.881901 7.510929 5.825109 13.725884 5.825109 18.637339 0 4.926507-2.075666 9.196749-6.214955 12.81524-4.151331 3.630533-10.093845 5.435263-17.859152 5.435263-31.067249 0.522303-62.397907 8.031727-93.972407 22.520745 2.063624 13.977252-1.554868 33.397292-10.872032 58.243565l51.256445-9.314154c-4.663098-10.879558-10.872032-18.118046-18.638844-21.747074-7.763802-3.612471-11.651723-6.720701-11.651723-9.314154 0-2.588937 3.367124-4.785019 10.098361-6.606306 6.726722-1.807741 13.202076-2.719889 19.41703-2.719889 16.563179 0 31.5745 10.878053 45.04149 32.616096 27.4322-3.106725 49.958966-4.654067 67.56675-4.654067 37.279193 0 59.920354 6.731237 67.950575 20.184681 8.024201 13.473011 12.041569 24.855304 12.041569 34.170963C831.535083 626.857003 827.517714 631.517091 819.493513 631.517091z" fill="#ffffff" p-id="3263"></path></svg>