<?xml version="1.0" encoding="UTF-8"?>
<svg viewBox="0 0 200.13248 200.02025" xmlns="http://www.w3.org/2000/svg">
 <g transform="translate(-249.4 -443.39)">
  <path transform="matrix(.41522 0 0 .41522 203.67 311.84)" d="m531.77 557.68c0 99.758-80.87 180.63-180.63 180.63s-180.63-80.87-180.63-180.63 80.87-180.63 180.63-180.63 180.63 80.87 180.63 180.63z" fill="none" stroke="#fff" stroke-width="24.084"/>
  <path transform="matrix(.24913 0 0 .24913 261.99 404.46)" d="m531.77 557.68c0 99.758-80.87 180.63-180.63 180.63s-180.63-80.87-180.63-180.63 80.87-180.63 180.63-180.63 180.63 80.87 180.63 180.63z" fill="none" stroke="#fff" stroke-width="40.139"/>
  <path transform="matrix(.12121 0 0 .12121 306.91 475.8)" d="m531.77 557.68c0 99.758-80.87 180.63-180.63 180.63s-180.63-80.87-180.63-180.63 80.87-180.63 180.63-180.63 180.63 80.87 180.63 180.63z"/>
  <path d="m349.48 455.93v174.95" fill="none" stroke="#fff" stroke-linecap="round" stroke-width="5"/>
  <path d="m436.98 543.41h-174.95" fill="none" stroke="#fff" stroke-linecap="round" stroke-width="5"/>
 </g>
</svg>
