<?xml version="1.0" standalone="no"?><!DOCTYPE svg PUBLIC "-//W3C//DTD SVG 1.1//EN" "http://www.w3.org/Graphics/SVG/1.1/DTD/svg11.dtd"><svg t="1682502486734" class="icon" viewBox="0 0 1024 1024" version="1.1" xmlns="http://www.w3.org/2000/svg" p-id="2973" xmlns:xlink="http://www.w3.org/1999/xlink" width="200" height="200"><path d="M927.26 424.548c10.429 5.578 18.614 13.763 24.192 24.193 5.578 10.43 8.548 20.775 8.548 49.303v379.912c0 28.528-2.97 38.873-8.548 49.303-5.578 10.43-13.763 18.615-24.193 24.193-10.43 5.578-20.775 8.548-49.303 8.548H146.044c-28.528 0-38.873-2.97-49.303-8.548-10.43-5.578-18.615-13.763-24.193-24.193-0.11-0.206-0.22-0.413-0.328-0.62l-0.322-0.62-0.316-0.621c-4.901-9.757-7.526-20.38-7.581-46.592L64 498.044c0-28.528 2.97-38.873 8.548-49.303 5.578-10.43 13.763-18.615 24.193-24.193 0.206-0.11 0.413-0.22 0.62-0.328l0.62-0.322 0.621-0.316c9.757-4.901 20.38-7.526 46.592-7.581L877.956 416c28.528 0 38.873 2.97 49.303 8.548z m-71.676 55.453H168.416c-13.806 0.042-18.905 1.524-24.046 4.273-5.214 2.789-9.307 6.882-12.096 12.096-2.749 5.14-4.231 10.24-4.273 24.046v335.168c0.042 13.806 1.524 18.905 4.273 24.046 2.789 5.214 6.882 9.307 12.096 12.096 5.14 2.749 10.24 4.231 24.046 4.273l0.606 0.001h685.956c14.264 0 19.437-1.485 24.652-4.274 5.214-2.789 9.307-6.882 12.096-12.096 2.749-5.14 4.231-10.24 4.273-24.046l0.001-0.606V521.022c0-14.264-1.485-19.437-4.274-24.652-2.789-5.214-6.882-9.307-12.096-12.096-5.066-2.71-10.092-4.188-23.452-4.27l-0.594-0.003zM619.489 736c7.132 0 9.718 0.743 12.326 2.137a14.538 14.538 0 0 1 6.048 6.048c1.394 2.608 2.137 5.194 2.137 12.326v22.978c0 7.132-0.743 9.718-2.137 12.326a14.538 14.538 0 0 1-6.048 6.048c-2.608 1.394-5.194 2.137-12.326 2.137H212.51c-7.132 0-9.718-0.743-12.326-2.137a14.538 14.538 0 0 1-6.048-6.048c-1.394-2.608-2.137-5.194-2.137-12.326V756.51c0-7.132 0.743-9.718 2.137-12.326a14.538 14.538 0 0 1 6.048-6.048c2.608-1.394 5.194-2.137 12.326-2.137H619.49z m192-160c7.132 0 9.718 0.743 12.326 2.137a14.538 14.538 0 0 1 6.048 6.048c1.394 2.608 2.137 5.194 2.137 12.326v22.978c0 7.132-0.743 9.718-2.137 12.326a14.538 14.538 0 0 1-6.048 6.048c-2.608 1.394-5.194 2.137-12.326 2.137H212.51c-7.132 0-9.718-0.743-12.326-2.137a14.538 14.538 0 0 1-6.048-6.048c-1.394-2.608-2.137-5.194-2.137-12.326V596.51c0-7.132 0.743-9.718 2.137-12.326a14.538 14.538 0 0 1 6.048-6.048c2.608-1.394 5.194-2.137 12.326-2.137H811.49z m115.77-503.452c10.43 5.578 18.615 13.763 24.193 24.193 5.578 10.43 8.548 20.775 8.548 49.303v155.912c0 28.528-2.97 38.873-8.548 49.303-5.578 10.43-13.763 18.615-24.193 24.193-10.43 5.578-20.775 8.548-49.303 8.548H146.044c-28.528 0-38.873-2.97-49.303-8.548-10.43-5.578-18.615-13.763-24.193-24.193-5.522-10.325-8.488-20.568-8.547-48.453L64 146.044c0-28.528 2.97-38.873 8.548-49.303 5.578-10.43 13.763-18.615 24.193-24.193 10.325-5.522 20.568-8.488 48.453-8.547L877.956 64c28.528 0 38.873 2.97 49.303 8.548z m-71.675 55.453H168.416c-13.806 0.042-18.905 1.524-24.046 4.273-5.214 2.789-9.307 6.882-12.096 12.096-2.789 5.215-4.274 10.388-4.274 24.652v110.562c0.043 13.806 1.525 18.905 4.274 24.046 2.789 5.214 6.882 9.307 12.096 12.096 5.215 2.789 10.388 4.274 24.652 4.274h685.956c14.264 0 19.437-1.485 24.652-4.274 5.214-2.789 9.307-6.882 12.096-12.096 2.789-5.215 4.274-10.388 4.274-24.652V169.022c0-14.264-1.485-19.437-4.274-24.652-2.789-5.214-6.882-9.307-12.096-12.096-5.215-2.789-10.388-4.274-24.652-4.274zM235.489 160c7.132 0 9.718 0.743 12.326 2.137a14.538 14.538 0 0 1 6.048 6.048c1.394 2.608 2.137 5.194 2.137 12.326v86.978c0 7.132-0.743 9.718-2.137 12.326a14.538 14.538 0 0 1-6.048 6.048c-2.608 1.394-5.194 2.137-12.326 2.137H212.51c-7.132 0-9.718-0.743-12.326-2.137a14.538 14.538 0 0 1-6.048-6.048c-1.394-2.608-2.137-5.194-2.137-12.326V180.51c0-7.132 0.743-9.718 2.137-12.326a14.538 14.538 0 0 1 6.048-6.048c2.608-1.394 5.194-2.137 12.326-2.137h22.978z" fill="#000000" p-id="2974"></path></svg>