<?xml version="1.0" standalone="no"?><!DOCTYPE svg PUBLIC "-//W3C//DTD SVG 1.1//EN" "http://www.w3.org/Graphics/SVG/1.1/DTD/svg11.dtd"><svg t="1678869328262" class="icon" viewBox="0 0 1024 1024" version="1.1" xmlns="http://www.w3.org/2000/svg" p-id="7009" xmlns:xlink="http://www.w3.org/1999/xlink" width="48" height="48"><path d="M943.686275 0.430252H80.313725C35.997759 0.430252 0 36.428011 0 80.743978v862.512044c0 44.172549 35.997759 80.313725 80.313725 80.313726h863.37255c44.172549 0 80.313725-35.997759 80.313725-80.313726V80.743978c0-44.315966-35.997759-80.313725-80.313725-80.313726zM889.331092 91.787115c18.931092 0 34.420168 15.345658 34.420169 34.420168 0 18.931092-15.345658 34.420168-34.420169 34.420168s-34.420168-15.345658-34.420168-34.420168c0-18.931092 15.489076-34.420168 34.420168-34.420168z m-129.505882 0c19.07451 0 34.420168 15.345658 34.420168 34.420168 0 18.931092-15.345658 34.420168-34.420168 34.420168-18.931092 0-34.420168-15.345658-34.420168-34.420168 0-18.931092 15.345658-34.420168 34.420168-34.420168z m-129.505882 0c19.07451 0 34.420168 15.345658 34.420168 34.420168 0 18.931092-15.345658 34.420168-34.420168 34.420168-18.931092 0-34.420168-15.345658-34.420168-34.420168 0-18.931092 15.345658-34.420168 34.420168-34.420168z m302.036975 839.995518H91.643697V245.960784h840.712606v685.821849z" fill="" p-id="7010"></path></svg>