<?xml version="1.0" standalone="no"?><!DOCTYPE svg PUBLIC "-//W3C//DTD SVG 1.1//EN" "http://www.w3.org/Graphics/SVG/1.1/DTD/svg11.dtd"><svg t="1679551594363" class="icon" viewBox="0 0 1398 1024" version="1.1" xmlns="http://www.w3.org/2000/svg" p-id="3858" xmlns:xlink="http://www.w3.org/1999/xlink" width="65.53125" height="48"><path d="M1252.526829 0H146.107317A146.107317 146.107317 0 0 0 0 146.107317v731.785366A146.107317 146.107317 0 0 0 146.107317 1024h1106.419512A146.107317 146.107317 0 0 0 1398.634146 877.892683V146.107317A146.107317 146.107317 0 0 0 1252.526829 0z m46.204878 861.658537a62.439024 62.439024 0 0 1-62.439024 62.439024H162.341463a62.439024 62.439024 0 0 1-62.439024-62.439024V162.341463a62.439024 62.439024 0 0 1 62.439024-62.439024h1073.95122a62.439024 62.439024 0 0 1 62.439024 62.439024z" p-id="3859"></path><path d="M187.317073 249.756098m40.460488 0l943.079024 0q40.460488 0 40.460488 40.460487l0 143.859513q0 40.460488-40.460488 40.460487l-943.079024 0q-40.460488 0-40.460488-40.460487l0-143.859513q0-40.460488 40.460488-40.460487Z" p-id="3860"></path><path d="M999.02439 561.95122m40.460488 0l131.371707 0q40.460488 0 40.460488 40.460487l0 143.859513q0 40.460488-40.460488 40.460487l-131.371707 0q-40.460488 0-40.460488-40.460487l0-143.859513q0-40.460488 40.460488-40.460487Z" p-id="3861"></path><path d="M724.292683 561.95122m40.460488 0l131.371707 0q40.460488 0 40.460488 40.460487l0 143.859513q0 40.460488-40.460488 40.460487l-131.371707 0q-40.460488 0-40.460488-40.460487l0-143.859513q0-40.460488 40.460488-40.460487Z" p-id="3862"></path><path d="M462.04878 561.95122m40.460488 0l131.371708 0q40.460488 0 40.460487 40.460487l0 143.859513q0 40.460488-40.460487 40.460487l-131.371708 0q-40.460488 0-40.460488-40.460487l0-143.859513q0-40.460488 40.460488-40.460487Z" p-id="3863"></path><path d="M187.317073 561.95122m40.460488 0l131.371707 0q40.460488 0 40.460488 40.460487l0 143.859513q0 40.460488-40.460488 40.460487l-131.371707 0q-40.460488 0-40.460488-40.460487l0-143.859513q0-40.460488 40.460488-40.460487Z" p-id="3864"></path></svg>